<svg xmlns="http://www.w3.org/2000/svg" xmlns:xlink="http://www.w3.org/1999/xlink" width="1280" height="1280" viewBox="0 0 1280 1280">
  <defs>
    <style>
      .cls-1, .cls-2, .cls-3 {
        fill-rule: evenodd;
      }

      .cls-1 {
        fill: url(#linear-gradient);
      }

      .cls-2 {
        fill: url(#linear-gradient-2);
      }

      .cls-3 {
        fill: url(#linear-gradient-3);
      }
    </style>
    <linearGradient id="linear-gradient" x1="699.499" y1="1157.75" x2="580.5" y2="311.031" gradientUnits="userSpaceOnUse">
      <stop offset="0" stop-color="#ff0090"/>
      <stop offset="0.479" stop-color="#ff00ae"/>
      <stop offset="1" stop-color="#ff00e4"/>
    </linearGradient>
    <linearGradient id="linear-gradient-2" x1="852.788" y1="1092.16" x2="429.306" y2="184" gradientUnits="userSpaceOnUse">
      <stop offset="0" stop-color="#fff"/>
      <stop offset="1" stop-color="#fff9f9"/>
    </linearGradient>
    <linearGradient id="linear-gradient-3" x1="783.734" y1="896.344" x2="783.734" y2="132.969" gradientUnits="userSpaceOnUse">
      <stop offset="0" stop-color="#ff0090"/>
      <stop offset="1" stop-color="#ff00ea"/>
    </linearGradient>
  </defs>
  <path id="Rounded_Rectangle_2" data-name="Rounded Rectangle 2" class="cls-1" d="M296.231,311.047H983.769a90,90,0,0,1,90,90v666.7a90,90,0,0,1-90,90H296.231a90,90,0,0,1-90-90v-666.7A90,90,0,0,1,296.231,311.047Z"/>
  <path id="Rounded_Rectangle_3" data-name="Rounded Rectangle 3" class="cls-2" d="M488.843,183.988h476.4a45,45,0,0,1,45,45V1047.14a45,45,0,0,1-45,45h-648.4a45,45,0,0,1-45-45V400.988C271.843,281.143,369,183.988,488.843,183.988Z"/>
  <path id="Rounded_Rectangle_4" data-name="Rounded Rectangle 4" class="cls-3" d="M538.675,132.957h490.1a45,45,0,0,1,45,45V851.348a45,45,0,0,1-45,45H538.675a45,45,0,0,1-45-45V177.957A45,45,0,0,1,538.675,132.957Z"/>
</svg>
