<svg id="bad73166-2d1a-4d83-b325-a220c544577b" data-name="Layer 1" xmlns="http://www.w3.org/2000/svg" viewBox="0 0 1018.2 1201" fill="currentColor"><path d="M1149,619.7q0,247.5,0,495.2c-.2,85.4-39.6,125.4-124.4,125.4q-384.9.5-769.8,0c-82.9-.1-123.8-40.1-123.9-121.7-.1-249.7.5-499.4.1-749.1-.1-50.2,16.5-89.5,63.2-112.2,8-4,18.2-11.2,26.9-3.4,7.1,6.4,1.6,15.6-.9,23.4-11.9,37.6-12.6,76.2-12.5,115.2q.6,343.3.5,686.6c.1,68.7,14.9,83.8,82.2,83.8H989.5c67.4,0,81.9-15,82.1-83.8.1-30.5,0-61,0-91.5-.1-55.1-.1-55.2-53.3-55.2q-235,0-470.2,0c-70.7-.1-84.3-13.9-84.3-85.7q.1-362.1.5-724.1c.1-68.5,14.5-82.9,82.9-83q262.2-.1,524.4.1c60,.1,76.7,16.7,76.8,76.5q.4,251.7.1,503.5Z" transform="translate(-130.9 -39.5)"/></svg>