<svg id="f469c723-df30-49a4-8900-9c2c06d2262c" data-name="bebf3dc0-ebaa-4bd2-9ef8-3bcc3df6fc27" xmlns="http://www.w3.org/2000/svg" xmlns:xlink="http://www.w3.org/1999/xlink" viewBox="0 0 2460.5 591.9"><defs><style>.ba989856-fd6f-4cbf-b55e-3926f2b0025b,.f4e999ee-b651-404e-895a-0fa0647a4755,.f56762f8-2e85-4df1-b137-986f2df81bda{fill-rule:evenodd;}.f4e999ee-b651-404e-895a-0fa0647a4755{fill:url(#bee402e2-5d9b-4d27-aa49-e916172ae7f9);}.ba989856-fd6f-4cbf-b55e-3926f2b0025b{fill:url(#fd7e919b-947f-4cb6-903f-b992a2cd51c6);}.f56762f8-2e85-4df1-b137-986f2df81bda{fill:url(#b607bfbc-6652-48e9-8eca-71089b9ac04f);}</style><linearGradient id="bee402e2-5d9b-4d27-aa49-e916172ae7f9" x1="-1081.39" y1="999.05" x2="-1150.11" y2="1488.07" gradientTransform="matrix(1, 0, 0, -1, 0, 408)" gradientUnits="userSpaceOnUse"><stop offset="0" stop-color="#ff0090"/><stop offset="0.48" stop-color="#ff00ae"/><stop offset="1" stop-color="#ff00e4"/></linearGradient><linearGradient id="fd7e919b-947f-4cb6-903f-b992a2cd51c6" x1="-992.85" y1="1036.93" x2="-1237.44" y2="1561.44" gradientTransform="matrix(1, 0, 0, -1, 0, 408)" gradientUnits="userSpaceOnUse"><stop offset="0" stop-color="#fff"/><stop offset="1" stop-color="#fff9f9"/></linearGradient><linearGradient id="b607bfbc-6652-48e9-8eca-71089b9ac04f" x1="-1032.74" y1="1150.02" x2="-1032.74" y2="1590.92" gradientTransform="matrix(1, 0, 0, -1, 0, 408)" gradientUnits="userSpaceOnUse"><stop offset="0" stop-color="#ff0090"/><stop offset="1" stop-color="#ff00ea"/></linearGradient></defs><path d="M-763.3-702v-350h85v275h156v75Z" transform="translate(1366.3 1182.9)"/><path d="M-350.8-697q-43.9,0-76.5-17.8c-21.7-11.9-38.6-28-50.5-48.5s-18-43.9-18-70.2c0-20.3,3.4-39,10-56a132.8,132.8,0,0,1,28-44.3,126.3,126.3,0,0,1,42.8-29c16.5-6.8,34.5-10.2,54.2-10.2s35.8,3.3,51.3,10a119.9,119.9,0,0,1,40.2,28,123.4,123.4,0,0,1,26,42.5c6,16.3,8.7,34.2,8,53.5l-.5,21.5H-447.3l-11.5-45h158l-8.5,9.5v-10a43.6,43.6,0,0,0-7.7-22.3,46.7,46.7,0,0,0-17.8-15.2,53.8,53.8,0,0,0-25-5.5c-13,0-24.1,2.6-33.2,7.7a49.8,49.8,0,0,0-20.8,22.5c-4.7,9.9-7,22-7,36.3s3.1,27.4,9.3,38.2a62.8,62.8,0,0,0,27,25.3c11.9,6,25.9,9,42.2,9a84.6,84.6,0,0,0,30.3-5c8.8-3.3,18.4-9,28.7-17l37.5,53a143.9,143.9,0,0,1-33,22,166.8,166.8,0,0,1-35.7,12.7A158,158,0,0,1-350.8-697Z" transform="translate(1366.3 1182.9)"/><path d="M-184.3-702v-370h80v370Zm77-78-29.5-60,124-127.5H92.7Zm103,78L-97.8-823l56.5-44L90.2-702Z" transform="translate(1366.3 1182.9)"/><path d="M215.7-697q-39,0-68.7-12.5c-19.9-8.3-35.6-19.5-47.3-33.5l48.5-42a96.6,96.6,0,0,0,35,22.7c13,4.9,25.3,7.3,37,7.3a43.7,43.7,0,0,0,12.5-1.5,26.3,26.3,0,0,0,9.3-4.3,17.9,17.9,0,0,0,7.7-15.2c0-6.7-3-11.8-9-15.5q-4.5-2.6-15-6c-7-2.3-16-5-27-8A218.5,218.5,0,0,1,158-819.8c-11.5-5.5-21-11.9-28.3-19.2a81.1,81.1,0,0,1-15.5-23.3c-3.7-8.5-5.5-18-5.5-28.7a65.8,65.8,0,0,1,8.8-33.5,87.2,87.2,0,0,1,23.5-26,111.3,111.3,0,0,1,34-16.8,140.6,140.6,0,0,1,39.7-5.7,174.2,174.2,0,0,1,42,5A169.3,169.3,0,0,1,294-954a140,140,0,0,1,30.7,21.5l-42,47a116.6,116.6,0,0,0-20.2-15.3,114.5,114.5,0,0,0-23.3-10.7,68.5,68.5,0,0,0-22-4,59,59,0,0,0-13.2,1.2,29,29,0,0,0-9.8,4,17.8,17.8,0,0,0-6,6.5,20.6,20.6,0,0,0-2,8.8,17.6,17.6,0,0,0,2.8,9.5,22.1,22.1,0,0,0,7.7,7.5c3.3,2,8.7,4.2,16,6.7s17.3,5.6,30,9.3a250.3,250.3,0,0,1,40.5,14.5c11.3,5.3,20.3,11.7,27,19a57.1,57.1,0,0,1,12,19.7,69.3,69.3,0,0,1,4,24.3c0,17-4.7,32.1-14.2,45.2s-22.6,23.5-39.3,31S237-697,215.7-697Z" transform="translate(1366.3 1182.9)"/><path d="M418.2-1020c-15,0-26.7-3.6-35.2-10.8s-12.8-17.4-12.8-30.7,4.3-21.8,13-29.5,20.3-11.5,35-11.5,26.7,3.6,35,10.7,12.5,17.3,12.5,30.3-4.2,22.3-12.7,30S432.9-1020,418.2-1020Zm-40,318V-967.5h80V-702Z" transform="translate(1366.3 1182.9)"/><path d="M533.2-702v-370h80v370Zm77-78-29.5-60,124-127.5H810.2Zm103,78L619.7-823l56.5-44L807.7-702Z" transform="translate(1366.3 1182.9)"/><path d="M933.2-697.5c-22.3,0-42.3-5.9-59.8-17.8s-31.4-28.1-41.7-49-15.5-44.4-15.5-70.7,5.2-50.8,15.5-71.5,24.5-36.9,42.5-48.8S912.7-973,935.7-973a102.1,102.1,0,0,1,34.7,5.5,91.8,91.8,0,0,1,27.8,15.2,99.7,99.7,0,0,1,20.5,22.5,95.2,95.2,0,0,1,12.5,27.3l-16.5-2v-63h79.5V-702h-81v-64l18-.5a87.2,87.2,0,0,1-13,26.5,95.7,95.7,0,0,1-22,22,107.9,107.9,0,0,1-29,15A103.1,103.1,0,0,1,933.2-697.5Zm22-67.5c12.3,0,23-2.8,32-8.5s16-13.8,21-24.3,7.5-22.9,7.5-37.2-2.5-26.8-7.5-37.3a57.4,57.4,0,0,0-21-24.5c-9-5.8-19.7-8.7-32-8.7s-22.4,2.9-31.3,8.7a59.3,59.3,0,0,0-20.7,24.5c-5,10.5-7.5,23-7.5,37.3s2.5,26.7,7.5,37.2,11.9,18.6,20.7,24.3S943.2-765,955.2-765Z" transform="translate(1366.3 1182.9)"/><path id="bdd3a9df-6fbd-485a-8e6f-9a2ca269cc27" data-name="Rounded Rectangle 2" class="f4e999ee-b651-404e-895a-0fa0647a4755" d="M-1314.3-1080.1h397.1a52,52,0,0,1,52,52h0V-643a52,52,0,0,1-52,52h-397.1a52,52,0,0,1-52-52v-385.1a52,52,0,0,1,52-52Z" transform="translate(1366.3 1182.9)"/><path id="a1516f4d-018d-4a8b-b2eb-d1546d1af9c5" data-name="Rounded Rectangle 3" class="ba989856-fd6f-4cbf-b55e-3926f2b0025b" d="M-1203.1-1153.4h275.2a25.9,25.9,0,0,1,26,25.9h0v472.6a26,26,0,0,1-26,26h-374.5a26.1,26.1,0,0,1-26-26v-373.2A125.3,125.3,0,0,1-1203.1-1153.4Z" transform="translate(1366.3 1182.9)"/><path id="ba6430cb-3bb2-43c1-b1e0-5706e1f35eea" data-name="Rounded Rectangle 4" class="f56762f8-2e85-4df1-b137-986f2df81bda" d="M-1174.3-1182.9h283.1a26,26,0,0,1,26,26h0V-768a26.1,26.1,0,0,1-26,26h-283.1a26.1,26.1,0,0,1-26-26v-388.9A26,26,0,0,1-1174.3-1182.9Z" transform="translate(1366.3 1182.9)"/></svg>