<svg id="fe6181d2-f303-4e68-a78a-4c7f6efaa154" data-name="Layer 1" xmlns="http://www.w3.org/2000/svg" viewBox="0 0 345.7 345.6"><defs><style>.ea6524d1-3a75-47a2-a137-56316522d701{fill:#f1607c;}.f6eed557-3af6-4489-9a18-09670616e424{fill:#f05274;}.bff625db-e3dd-4e4b-a1b9-84dc46c15fbb{fill:#ef4f79;}.add6e643-c640-4b58-a822-34a4585473fe{fill:#ef4575;}.b2a91f5e-4330-4df2-a59a-39ae2d71913e{fill:#ee2d69;}</style></defs><path class="ea6524d1-3a75-47a2-a137-56316522d701" d="M250.3,505l-.9-.2c-2.4-2.9-1.6-6.4-1.6-9.7V244c0-2.1.1-4.3,1.6-6.1,9.7-9,18.5-19.1,30.1-26.1,58.3-35.2,134.6,2.3,142,69.9,3.3,30.5-6.3,56.3-27.4,78.2-3.8,3.9-8.5,7-10.9,12.1-.4,2.1-2.1,3.3-3.5,4.7L254.6,501.8C253.4,503,252.3,504.6,250.3,505Z" transform="translate(-76.7 -198.3)"/><path class="f6eed557-3af6-4489-9a18-09670616e424" d="M249.4,237.9V504.8l-.9.2c-2.1-.4-3.3-2.2-4.6-3.6q-62.1-61.8-124-123.9c-1.6-1.6-3.7-2.9-3.9-5.5s1.2-4,2.8-5.6L245,240.2c1.1-1,2-2.2,3.6-2.5A1.1,1.1,0,0,1,249.4,237.9Z" transform="translate(-76.7 -198.3)"/><path class="bff625db-e3dd-4e4b-a1b9-84dc46c15fbb" d="M248.6,237.7c-1.4,1.6-2.7,3.3-4.2,4.8l-124,124c-1.6,1.6-3.8,2.9-4,5.5l-.4.4-.3-.4c-2.1-4.7-6.4-7.5-9.9-11-10.9-11.1-19.4-23.7-24.3-38.5-18.6-56.2,18-115.4,76.7-123.2,30.4-4,56.9,5.1,79,26.5C241.2,229.6,245.4,233.1,248.6,237.7Z" transform="translate(-76.7 -198.3)"/><path class="add6e643-c640-4b58-a822-34a4585473fe" d="M250.3,505c1-1.1,1.8-2.4,2.9-3.4l127-127c.9-.9,2-1.7,3-2.6,18.9,16.5,32.8,35.8,37.6,61.2,9.3,48.8-24.1,99.1-73,108.6-33.3,6.5-62.2-2.3-86.7-25.7C257.4,512.5,253.9,508.7,250.3,505Z" transform="translate(-76.7 -198.3)"/><path class="b2a91f5e-4330-4df2-a59a-39ae2d71913e" d="M115.7,372h.7c1.3,1.5,2.7,3,4.1,4.4L244.6,500.6c1.4,1.4,2.6,3,3.9,4.4-14.8,16.8-31.7,30.2-53.9,36-55.9,14.3-111.5-24.2-117.3-81.4-3-29.5,6.2-54.8,26.6-76.1C107.7,379.6,111.8,375.8,115.7,372Z" transform="translate(-76.7 -198.3)"/></svg>